<?xml version="1.0" encoding="UTF-8" standalone="no"?>
<!DOCTYPE svg PUBLIC "-//W3C//DTD SVG 1.1//EN" "http://www.w3.org/Graphics/SVG/1.1/DTD/svg11.dtd">
<svg width="100%" height="100%" viewBox="0 0 2084 2084" version="1.1" xmlns="http://www.w3.org/2000/svg" xmlns:xlink="http://www.w3.org/1999/xlink" xml:space="preserve" xmlns:serif="http://www.serif.com/" style="fill-rule:evenodd;clip-rule:evenodd;stroke-linejoin:round;stroke-miterlimit:2;">
    <g transform="matrix(4.16667,0,0,4.16667,0,0)">
        <path d="M303.766,180.631C303.766,210.325 279.694,234.397 250,234.397C220.306,234.397 196.233,210.325 196.233,180.631C196.233,150.937 220.306,126.865 250,126.865C279.694,126.865 303.766,150.937 303.766,180.631Z" style="fill:url(#_Linear1);"/>
        <clipPath id="_clip2">
            <path d="M303.766,180.631C303.766,210.325 279.694,234.397 250,234.397C220.306,234.397 196.233,210.325 196.233,180.631C196.233,150.937 220.306,126.865 250,126.865C279.694,126.865 303.766,150.937 303.766,180.631Z"/>
        </clipPath>
        <g clip-path="url(#_clip2)">
            <path d="M222.432,150.107L226.893,156.817L228.758,152.507L237.75,147.283L241.99,133.91L224.672,127.276L211.833,138.101L222.516,145.495L222.432,150.107Z" style="fill:url(#_Linear3);"/>
            <clipPath id="_clip4">
                <path d="M223.923,194.605L214.61,189.949L210.787,191.606L206.591,187.733L206.536,184.338L202.939,186.332L201.955,179.888L206.484,178.668L209.419,182.021L209.146,178.358L219.14,168.362L217.409,165.233L223.501,164.374L216.356,158.088L210.099,155.108L210.521,163.403L202.668,157.324L208.686,147.542L212.337,149.601L211.319,152.099L217.139,154.54L218.784,150.983L206.4,142.547L193.953,161.997L195.016,180.395L198.597,186.23L204.211,188.69L207.222,191.272L211.134,193.386L208.685,198.45L211.727,205.558L214.646,208.099L211.833,225.686L214.903,228.121L222.945,219.192L225.299,211.982L229.427,211.044L229.861,204.564L231.388,199.887L226.757,197.815L223.923,194.605Z"/>
            </clipPath>
            <g clip-path="url(#_clip4)">
                <rect x="196.233" y="142.547" width="35.155" height="85.574" style="fill:url(#_Linear5);fill-rule:nonzero;"/>
            </g>
            <path d="M294.432,193.81L298.921,200.051L298.584,195.132L296.106,188.323L296.699,195.01L294.432,193.81Z" style="fill:url(#_Linear6);"/>
            <clipPath id="_clip7">
                <path d="M309.05,158.077L291.824,141.008L283.925,147.223L281.438,144.725L279.145,147.773L275.104,145.332L282.394,139.372L271.467,144.743L276.631,148.442L266.114,152.204L266.707,149.052L260.737,146.41L250.946,156.151L253.61,161.248L257.428,156.979L257.513,153.93L260.557,151.831L260.601,157.08L257.902,161.423L251.592,162.344L246.91,165.902L247.81,169.806L244.79,169.622L245.756,174.846L252.288,169.46L256.021,173.524L255.58,168.667L259.48,174.358L261.126,171.898L263.4,167.488L268.491,170.983L263.314,171.329L261.499,173.647L265.079,174.297L264.418,178.118L254.885,176.838L253.137,173.892L244.145,177.448L239.428,189.005L251.491,194.277L256.651,218.451L263.57,214.139L268.19,197.742L273.069,190.11L269.168,189.908L265.402,180.273L270.727,187.894L276.699,184.643L274.986,181.729L272.968,182.062L271.948,178.505L280.806,182.428L286.794,192.692L287.539,187.287L292.068,183.119L296.106,188.323L299.55,191.109L301.126,188.546L299.987,184.406L306.654,182.338L309.05,158.077Z"/>
            </clipPath>
            <g clip-path="url(#_clip7)">
                <rect x="239.428" y="139.372" width="64.338" height="79.079" style="fill:url(#_Linear8);fill-rule:nonzero;"/>
            </g>
            <path d="M258.14,137.302L260.228,138.503L260.65,135.169L253.476,136.265L256.461,140.006L258.14,137.302Z" style="fill:url(#_Linear9);"/>
            <path d="M241.906,152.282L239.428,150.951L237.037,152.039L240.295,153.471L241.906,152.282Z" style="fill:url(#_Linear10);"/>
            <path d="M246.35,161.633L246.504,164.846L249.32,163.097L246.249,158.037L245.756,160.578L243.212,162.33L245.064,163.918L246.35,161.633Z" style="fill:url(#_Linear11);"/>
        </g>
        <path d="M250,239.68C217.388,239.68 190.95,213.243 190.95,180.631C190.95,148.019 217.388,121.582 250,121.582C282.611,121.582 309.05,148.019 309.05,180.631C309.05,213.243 282.611,239.68 250,239.68ZM250,98.736C204.771,98.736 168.105,135.402 168.105,180.63C168.105,244.778 250,321.759 250,321.759C250,321.759 331.896,243.129 331.896,180.63C331.896,135.402 295.229,98.736 250,98.736Z" style="fill:url(#_Linear12);"/>
        <path d="M314.507,130.173C313.926,131.856 313.329,133.533 312.728,135.207C310.048,142.657 307.308,150.148 304.369,157.558C307.381,164.646 309.05,172.444 309.05,180.631C309.05,213.243 282.611,239.68 250,239.68C248.059,239.68 246.141,239.581 244.247,239.397C230.507,248.615 215.274,255.816 199.582,261.998C222.667,296.065 250,321.758 250,321.758C250,321.758 331.896,243.129 331.896,180.63C331.896,161.596 325.399,144.08 314.507,130.173Z" style="fill:url(#_Linear13);"/>
        <path d="M125.796,378.957L113.838,378.957L113.838,351.454L105.468,351.454L105.468,341.589L134.166,341.589L134.166,351.454L125.796,351.454L125.796,378.957Z" style="fill:url(#_Linear14);"/>
        <path d="M149.412,359.465L154.255,359.465C155.131,359.465 155.739,359.286 156.078,358.927C156.417,358.569 156.587,357.911 156.587,356.955L156.587,353.965C156.587,353.008 156.417,352.351 156.078,351.992C155.739,351.633 155.131,351.454 154.255,351.454L149.412,351.454L149.412,359.465ZM157.663,378.957L152.581,368.135L149.412,368.135L149.412,378.957L137.454,378.957L137.454,341.589L154.793,341.589C159.895,341.589 163.562,342.665 165.794,344.817C168.025,346.969 169.143,350.498 169.143,355.4C169.143,360.542 167.607,364.089 164.538,366.043L170.637,378.957L157.663,378.957Z" style="fill:url(#_Linear15);"/>
        <path d="M194.134,364.368L191.265,353.068L190.727,353.068L187.856,364.368L194.134,364.368ZM196.406,373.038L185.584,373.038L184.09,378.957L172.132,378.957L181.698,341.589L200.292,341.589L209.858,378.957L197.9,378.957L196.406,373.038Z" style="fill:url(#_Linear16);"/>
        <path d="M220.62,341.589L226.658,367.477L227.196,367.477L233.235,341.589L245.193,341.589L236.225,378.957L217.631,378.957L208.662,341.589L220.62,341.589Z" style="fill:url(#_Linear17);"/>
        <path d="M260.437,369.091L274.488,369.091L274.488,378.957L248.48,378.957L248.48,341.589L274.788,341.589L273.293,351.454L260.437,351.454L260.437,355.938L272.396,355.938L272.396,364.607L260.437,364.607L260.437,369.091Z" style="fill:url(#_Linear18);"/>
        <path d="M279.569,341.589L291.527,341.589L291.527,369.091L302.887,369.091L302.887,378.957L279.569,378.957L279.569,341.589Z" style="fill:url(#_Linear19);"/>
        <rect x="306.175" y="341.588" width="11.958" height="37.368" style="fill:url(#_Linear20);"/>
        <path d="M324.409,341.588L336.248,341.588L344.379,354.681C345.375,356.356 345.874,357.771 345.874,358.926L346.232,358.926L346.232,341.588L358.19,341.588L358.19,378.956L346.352,378.956L338.221,365.862C337.224,364.188 336.726,362.773 336.726,361.617L336.367,361.617L336.367,378.956L324.409,378.956L324.409,341.588Z" style="fill:url(#_Linear21);"/>
        <path d="M394.361,356.594L394.361,377.162C392.328,378.119 390.106,378.806 387.695,379.225C385.283,379.643 382.403,379.852 379.056,379.852C374.87,379.852 371.661,379.274 369.43,378.119C367.196,376.964 365.612,375.001 364.676,372.229C363.739,369.46 363.271,365.484 363.271,360.301C363.271,355.121 363.789,351.145 364.826,348.374C365.861,345.604 367.636,343.63 370.146,342.455C372.658,341.28 376.225,340.691 380.849,340.691C382.882,340.691 385.084,340.851 387.456,341.17C389.827,341.489 391.53,341.847 392.567,342.246L391.073,351.692C389.638,351.374 388.033,351.104 386.26,350.885C384.486,350.667 382.98,350.556 381.746,350.556C379.594,350.556 378.118,350.855 377.321,351.453C376.523,352.05 376.126,353.147 376.126,354.741L376.126,370.226L383.001,370.226L383.001,365.264L379.952,365.264L379.952,356.594L394.361,356.594Z" style="fill:url(#_Linear22);"/>
        <path d="M178.499,403.446L184.709,403.446L184.709,401.605L180.719,401.605L180.719,392.163L178.499,392.163L178.499,403.446Z" style="fill:rgb(43,47,49);fill-rule:nonzero;"/>
        <path d="M189.493,397.814C189.493,399.457 189.62,400.702 189.89,401.515C190.143,402.327 190.613,402.905 191.281,403.23C191.948,403.555 192.941,403.717 194.259,403.717C195.577,403.717 196.57,403.555 197.238,403.23C197.906,402.905 198.357,402.327 198.628,401.497C198.899,400.684 199.025,399.457 199.025,397.814C199.025,396.171 198.899,394.925 198.628,394.095C198.357,393.283 197.906,392.705 197.238,392.38C196.57,392.055 195.577,391.892 194.259,391.892C192.941,391.892 191.948,392.055 191.281,392.38C190.613,392.705 190.143,393.283 189.89,394.095C189.62,394.925 189.493,396.171 189.493,397.814ZM191.876,401.822L191.876,395.016C191.876,394.564 191.985,394.239 192.201,394.059C192.418,393.878 192.815,393.788 193.375,393.788L196.642,393.788L196.642,400.594C196.642,401.045 196.534,401.37 196.317,401.551C196.083,401.731 195.685,401.822 195.126,401.822L191.876,401.822Z" style="fill:rgb(43,47,49);fill-rule:nonzero;"/>
        <path d="M213.739,403.447L211.753,399.33C212.259,399.096 212.638,398.717 212.873,398.175C213.107,397.651 213.234,396.947 213.234,396.063C213.234,395.088 213.125,394.312 212.909,393.752C212.674,393.192 212.313,392.795 211.825,392.542C211.338,392.29 210.652,392.163 209.804,392.163L205.128,392.163L205.128,403.447L207.348,403.447L207.348,399.619L209.533,399.619L211.338,403.447L213.739,403.447ZM207.348,394.005L209.785,394.005C210.201,394.005 210.508,394.059 210.67,394.167C210.833,394.276 210.905,394.474 210.905,394.763L210.905,397.164C210.905,397.453 210.833,397.651 210.67,397.76C210.508,397.868 210.201,397.922 209.785,397.922L207.348,397.922L207.348,394.005Z" style="fill:rgb(43,47,49);fill-rule:nonzero;"/>
        <path d="M221.61,398.662L225.726,398.662L225.726,396.947L221.61,396.947L221.61,394.005L226.123,394.005L226.394,392.163L219.389,392.163L219.389,403.447L226.412,403.447L226.412,401.605L221.61,401.605L221.61,398.662Z" style="fill:rgb(43,47,49);fill-rule:nonzero;"/>
        <path d="M232.044,403.447L234.247,403.447L234.752,395.341L234.861,395.341L237.19,403.447L238.941,403.447L241.27,395.341L241.378,395.341L241.883,403.447L244.086,403.447L243.346,392.163L240.385,392.163L238.128,399.98L238.002,399.98L235.745,392.163L232.785,392.163L232.044,403.447Z" style="fill:rgb(43,47,49);fill-rule:nonzero;"/>
        <rect x="258.276" y="392.163" width="2.221" height="11.284" style="fill:rgb(43,47,49);fill-rule:nonzero;"/>
        <path d="M269.252,399.962L271.887,399.962C273.007,399.962 273.819,399.655 274.307,399.042C274.794,398.446 275.047,397.453 275.047,396.063C275.047,395.088 274.938,394.312 274.722,393.752C274.487,393.192 274.126,392.795 273.639,392.542C273.151,392.29 272.465,392.163 271.617,392.163L267.031,392.163L267.031,403.447L269.252,403.447L269.252,399.962ZM269.252,398.247L269.252,394.005L271.599,394.005C272.014,394.005 272.321,394.059 272.483,394.167C272.646,394.276 272.718,394.474 272.718,394.763L272.718,397.489C272.718,397.778 272.646,397.976 272.483,398.085C272.321,398.193 272.014,398.247 271.599,398.247L269.252,398.247Z" style="fill:rgb(43,47,49);fill-rule:nonzero;"/>
        <path d="M280.065,401.407L279.74,403.23C280.949,403.555 282.249,403.717 283.639,403.717C284.704,403.717 285.535,403.609 286.167,403.374C286.799,403.158 287.25,402.797 287.539,402.291C287.81,401.786 287.954,401.1 287.954,400.251C287.954,399.439 287.828,398.807 287.593,398.337C287.358,397.868 286.961,397.507 286.419,397.272C285.86,397.038 285.102,396.875 284.145,396.803L282.303,396.677L282.303,393.842C282.719,393.788 283.242,393.752 283.838,393.752C284.993,393.752 286.076,393.842 287.069,394.041L287.34,392.29C286.094,392.019 284.849,391.892 283.567,391.892C282.646,391.892 281.924,392.001 281.401,392.235C280.877,392.47 280.48,392.867 280.245,393.391C280.011,393.914 279.884,394.637 279.884,395.539C279.884,396.334 279.992,396.947 280.227,397.381C280.462,397.832 280.859,398.157 281.419,398.356C281.978,398.572 282.773,398.717 283.838,398.807L285.535,398.951L285.535,401.75C284.885,401.822 284.253,401.858 283.639,401.858C283.043,401.858 282.412,401.822 281.78,401.731C281.148,401.659 280.57,401.551 280.065,401.407Z" style="fill:rgb(43,47,49);fill-rule:nonzero;"/>
        <path d="M297.974,403.717C299.202,403.717 300.123,403.609 300.754,403.392C301.386,403.176 301.82,402.797 302.072,402.255C302.307,401.731 302.433,400.919 302.433,399.854L302.433,392.163L300.213,392.163L300.213,400.865C300.213,401.136 300.159,401.334 300.05,401.461C299.924,401.587 299.725,401.677 299.419,401.731C299.112,401.786 298.642,401.822 298.047,401.822L295.718,401.822L295.718,392.163L293.497,392.163L293.497,399.854C293.497,400.919 293.623,401.731 293.876,402.255C294.111,402.797 294.544,403.176 295.176,403.392C295.808,403.609 296.729,403.717 297.974,403.717Z" style="fill:rgb(43,47,49);fill-rule:nonzero;"/>
        <path d="M308.517,403.447L310.72,403.447L311.225,395.341L311.334,395.341L313.662,403.447L315.414,403.447L317.742,395.341L317.851,395.341L318.356,403.447L320.559,403.447L319.819,392.163L316.858,392.163L314.601,399.98L314.475,399.98L312.218,392.163L309.257,392.163L308.517,403.447Z" style="fill:rgb(43,47,49);fill-rule:nonzero;"/>
    </g>
    <defs>
        <linearGradient id="_Linear1" x1="0" y1="0" x2="1" y2="0" gradientUnits="userSpaceOnUse" gradientTransform="matrix(57.2585,89.5234,-89.5234,57.2585,221.108,135.458)"><stop offset="0" style="stop-color:rgb(25,164,218);stop-opacity:1"/><stop offset="1" style="stop-color:rgb(43,90,169);stop-opacity:1"/></linearGradient>
        <linearGradient id="_Linear3" x1="0" y1="0" x2="1" y2="0" gradientUnits="userSpaceOnUse" gradientTransform="matrix(-31.7808,-95.3427,95.3427,-31.7808,259.229,232.957)"><stop offset="0" style="stop-color:rgb(0,168,206);stop-opacity:1"/><stop offset="1" style="stop-color:rgb(57,186,140);stop-opacity:1"/></linearGradient>
        <linearGradient id="_Linear5" x1="0" y1="0" x2="1" y2="0" gradientUnits="userSpaceOnUse" gradientTransform="matrix(-31.7809,-95.3429,95.3429,-31.7809,232.427,241.891)"><stop offset="0" style="stop-color:rgb(0,168,206);stop-opacity:1"/><stop offset="1" style="stop-color:rgb(57,186,140);stop-opacity:1"/></linearGradient>
        <linearGradient id="_Linear6" x1="0" y1="0" x2="1" y2="0" gradientUnits="userSpaceOnUse" gradientTransform="matrix(-31.7807,-95.3422,95.3422,-31.7807,304.326,217.925)"><stop offset="0" style="stop-color:rgb(0,168,206);stop-opacity:1"/><stop offset="1" style="stop-color:rgb(57,186,140);stop-opacity:1"/></linearGradient>
        <linearGradient id="_Linear8" x1="0" y1="0" x2="1" y2="0" gradientUnits="userSpaceOnUse" gradientTransform="matrix(-31.7807,-95.3423,95.3423,-31.7807,290.562,222.513)"><stop offset="0" style="stop-color:rgb(0,168,206);stop-opacity:1"/><stop offset="1" style="stop-color:rgb(57,186,140);stop-opacity:1"/></linearGradient>
        <linearGradient id="_Linear9" x1="0" y1="0" x2="1" y2="0" gradientUnits="userSpaceOnUse" gradientTransform="matrix(-31.7808,-95.3428,95.3428,-31.7808,286.452,223.883)"><stop offset="0" style="stop-color:rgb(0,168,206);stop-opacity:1"/><stop offset="1" style="stop-color:rgb(57,186,140);stop-opacity:1"/></linearGradient>
        <linearGradient id="_Linear10" x1="0" y1="0" x2="1" y2="0" gradientUnits="userSpaceOnUse" gradientTransform="matrix(-31.7814,-95.3446,95.3446,-31.7814,265.687,230.806)"><stop offset="0" style="stop-color:rgb(0,168,206);stop-opacity:1"/><stop offset="1" style="stop-color:rgb(57,186,140);stop-opacity:1"/></linearGradient>
        <linearGradient id="_Linear11" x1="0" y1="0" x2="1" y2="0" gradientUnits="userSpaceOnUse" gradientTransform="matrix(-31.7808,-95.3427,95.3427,-31.7808,268.635,229.822)"><stop offset="0" style="stop-color:rgb(0,168,206);stop-opacity:1"/><stop offset="1" style="stop-color:rgb(57,186,140);stop-opacity:1"/></linearGradient>
        <linearGradient id="_Linear12" x1="0" y1="0" x2="1" y2="0" gradientUnits="userSpaceOnUse" gradientTransform="matrix(74.9816,106.792,-106.792,74.9816,201.709,117.214)"><stop offset="0" style="stop-color:rgb(0,168,206);stop-opacity:1"/><stop offset="1" style="stop-color:rgb(57,186,140);stop-opacity:1"/></linearGradient>
        <linearGradient id="_Linear13" x1="0" y1="0" x2="1" y2="0" gradientUnits="userSpaceOnUse" gradientTransform="matrix(-120.192,20.7436,-20.7436,-120.192,307.815,221.554)"><stop offset="0" style="stop-color:rgb(0,168,206);stop-opacity:1"/><stop offset="1" style="stop-color:rgb(57,186,140);stop-opacity:1"/></linearGradient>
        <linearGradient id="_Linear14" x1="0" y1="0" x2="1" y2="0" gradientUnits="userSpaceOnUse" gradientTransform="matrix(2.28814e-16,37.3682,-37.3682,2.28814e-16,204.177,341.589)"><stop offset="0" style="stop-color:rgb(0,168,206);stop-opacity:1"/><stop offset="1" style="stop-color:rgb(57,186,140);stop-opacity:1"/></linearGradient>
        <linearGradient id="_Linear15" x1="0" y1="0" x2="1" y2="0" gradientUnits="userSpaceOnUse" gradientTransform="matrix(2.28814e-16,37.3682,-37.3682,2.28814e-16,204.177,341.589)"><stop offset="0" style="stop-color:rgb(0,168,206);stop-opacity:1"/><stop offset="1" style="stop-color:rgb(57,186,140);stop-opacity:1"/></linearGradient>
        <linearGradient id="_Linear16" x1="0" y1="0" x2="1" y2="0" gradientUnits="userSpaceOnUse" gradientTransform="matrix(2.28814e-16,37.3682,-37.3682,2.28814e-16,204.177,341.589)"><stop offset="0" style="stop-color:rgb(0,168,206);stop-opacity:1"/><stop offset="1" style="stop-color:rgb(57,186,140);stop-opacity:1"/></linearGradient>
        <linearGradient id="_Linear17" x1="0" y1="0" x2="1" y2="0" gradientUnits="userSpaceOnUse" gradientTransform="matrix(2.28814e-16,37.3682,-37.3682,2.28814e-16,204.177,341.589)"><stop offset="0" style="stop-color:rgb(0,168,206);stop-opacity:1"/><stop offset="1" style="stop-color:rgb(57,186,140);stop-opacity:1"/></linearGradient>
        <linearGradient id="_Linear18" x1="0" y1="0" x2="1" y2="0" gradientUnits="userSpaceOnUse" gradientTransform="matrix(2.28814e-16,37.3682,-37.3682,2.28814e-16,204.177,341.589)"><stop offset="0" style="stop-color:rgb(0,168,206);stop-opacity:1"/><stop offset="1" style="stop-color:rgb(57,186,140);stop-opacity:1"/></linearGradient>
        <linearGradient id="_Linear19" x1="0" y1="0" x2="1" y2="0" gradientUnits="userSpaceOnUse" gradientTransform="matrix(2.28814e-16,37.3682,-37.3682,2.28814e-16,204.177,341.589)"><stop offset="0" style="stop-color:rgb(0,168,206);stop-opacity:1"/><stop offset="1" style="stop-color:rgb(57,186,140);stop-opacity:1"/></linearGradient>
        <linearGradient id="_Linear20" x1="0" y1="0" x2="1" y2="0" gradientUnits="userSpaceOnUse" gradientTransform="matrix(2.39793e-16,39.1611,-39.1611,2.39793e-16,350.268,340.691)"><stop offset="0" style="stop-color:rgb(25,164,218);stop-opacity:1"/><stop offset="1" style="stop-color:rgb(43,90,169);stop-opacity:1"/></linearGradient>
        <linearGradient id="_Linear21" x1="0" y1="0" x2="1" y2="0" gradientUnits="userSpaceOnUse" gradientTransform="matrix(2.39793e-16,39.1611,-39.1611,2.39793e-16,350.268,340.691)"><stop offset="0" style="stop-color:rgb(25,164,218);stop-opacity:1"/><stop offset="1" style="stop-color:rgb(43,90,169);stop-opacity:1"/></linearGradient>
        <linearGradient id="_Linear22" x1="0" y1="0" x2="1" y2="0" gradientUnits="userSpaceOnUse" gradientTransform="matrix(2.39793e-16,39.1611,-39.1611,2.39793e-16,350.268,340.691)"><stop offset="0" style="stop-color:rgb(25,164,218);stop-opacity:1"/><stop offset="1" style="stop-color:rgb(43,90,169);stop-opacity:1"/></linearGradient>
    </defs>
</svg>
